 <svg  version="1.0" xmlns="http://www.w3.org/2000/svg"  width="900.000000pt" height="813.000000pt" viewBox="0 0 900.000000 813.000000"  preserveAspectRatio="xMidYMid meet">  <g transform="translate(0.000000,813.000000) scale(0.100000,-0.100000)" fill="#3c59af" stroke="none"> <path d="M0 4065 l0 -4065 4500 0 4500 0 0 4065 0 4065 -4500 0 -4500 0 0 -4065z m4855 2527 c39 -6 83 -15 98 -21 16 -6 47 -11 70 -11 23 0 58 -5 77 -10 19 -6 64 -15 100 -20 36 -5 142 -24 235 -40 94 -17 211 -37 260 -45 50 -8 106 -19 125 -24 19 -6 51 -11 70 -11 19 0 64 -6 100 -14 36 -8 99 -20 140 -27 41 -6 95 -15 120 -19 258 -47 417 -74 475 -82 39 -5 95 -16 126 -24 30 -8 69 -14 85 -14 16 0 61 -6 99 -15 39 -8 113 -22 165 -31 52 -9 113 -23 134 -31 59 -20 145 -91 181 -148 61 -97 65 -120 65 -350 -1 -116 -5 -241 -10 -280 -6 -38 -12 -162 -15 -275 -3 -113 -12 -313 -20 -445 -8 -132 -19 -350 -25 -485 -5 -135 -16 -375 -24 -535 -27 -524 -38 -736 -51 -1020 -13 -304 -21 -345 -75 -427 -65 -98 -131 -138 -377 -232 -21 -8 -92 -35 -158 -61 -66 -25 -136 -52 -155 -60 -48 -18 -95 -36 -235 -90 -66 -25 -138 -53 -160 -61 -22 -9 -53 -22 -68 -30 -16 -8 -36 -14 -46 -14 -9 0 -26 -7 -37 -15 -10 -8 -25 -15 -32 -15 -8 0 -28 -6 -45 -14 -18 -7 -50 -20 -72 -29 -22 -8 -73 -29 -114 -46 -40 -17 -80 -31 -88 -31 -8 0 -27 -6 -41 -14 -25 -13 -70 -31 -152 -61 -43 -16 -183 -72 -228 -91 -18 -8 -39 -14 -47 -14 -7 0 -26 -7 -42 -15 -15 -8 -71 -31 -123 -50 -52 -20 -104 -40 -115 -44 -20 -9 -71 -28 -145 -56 -65 -24 -110 -42 -191 -73 -122 -48 -180 -58 -251 -43 -33 7 -76 19 -96 28 -21 9 -55 24 -77 34 -22 10 -107 49 -189 88 -81 39 -150 71 -151 71 -2 0 -75 34 -162 76 -218 104 -285 136 -378 179 -44 20 -120 56 -170 80 -49 23 -135 64 -190 90 -55 26 -131 62 -170 80 -38 19 -108 51 -155 73 -131 61 -242 114 -393 186 -76 36 -162 76 -190 88 -86 37 -166 88 -204 132 -54 63 -93 157 -93 224 0 32 -6 174 -15 317 -8 143 -19 415 -25 605 -10 365 -18 585 -50 1400 -29 752 -31 790 -32 986 l-1 180 33 68 c41 83 124 162 200 192 64 24 210 54 267 54 22 0 65 5 94 11 30 5 101 16 159 24 58 8 184 25 280 39 96 14 213 30 260 36 47 6 121 17 165 26 44 8 102 14 128 14 26 0 78 6 115 14 37 8 96 17 132 21 36 3 90 10 120 15 30 5 156 23 280 40 124 17 263 37 310 45 47 8 105 15 130 15 25 0 72 7 103 15 32 8 79 16 105 16 26 1 61 5 77 10 32 8 87 6 200 -9z"/> <path d="M4699 6215 c-4 -3 -58 -12 -120 -20 -177 -22 -398 -54 -464 -66 -33 -6 -98 -15 -145 -19 -47 -5 -114 -13 -150 -19 -62 -10 -106 -16 -335 -46 -87 -12 -287 -40 -535 -75 -41 -6 -114 -17 -161 -25 -47 -8 -108 -15 -135 -15 -27 0 -67 -5 -89 -11 -22 -6 -59 -14 -83 -18 -48 -7 -55 -22 -14 -34 37 -10 332 -84 412 -103 36 -8 88 -22 116 -30 65 -18 206 -18 270 0 27 8 80 17 118 20 38 4 87 11 110 16 23 5 133 23 246 40 113 17 230 35 260 41 30 6 87 14 125 18 39 5 95 14 125 19 82 16 185 32 274 42 44 5 100 14 125 19 25 6 138 24 251 41 113 17 238 37 278 45 40 8 90 15 111 15 48 0 95 33 71 50 -8 5 -28 10 -45 10 -16 0 -50 5 -75 11 -24 5 -94 19 -155 29 -233 40 -341 60 -360 65 -11 4 -23 4 -26 0z"/> <path d="M6075 5916 c-27 -8 -86 -19 -130 -26 -94 -13 -193 -29 -405 -65 -85 -15 -198 -33 -250 -40 -52 -8 -111 -19 -130 -24 -19 -6 -55 -11 -81 -11 -25 0 -68 -6 -95 -14 -27 -8 -76 -17 -109 -20 -33 -3 -80 -11 -105 -16 -25 -5 -130 -23 -235 -40 -253 -41 -359 -58 -425 -71 -30 -6 -86 -14 -123 -19 -38 -4 -71 -11 -74 -14 -24 -24 71 -52 437 -131 36 -7 85 -19 109 -26 37 -10 56 -10 115 4 39 9 121 25 181 36 326 59 395 73 452 86 34 8 76 15 95 15 18 0 49 5 68 10 19 6 73 17 120 25 47 8 121 21 165 30 198 37 237 44 350 64 66 12 140 27 165 33 25 6 74 14 110 18 36 4 78 13 93 19 16 6 42 11 60 11 17 0 58 6 91 14 34 8 93 19 131 25 105 18 145 30 145 46 0 17 -18 23 -101 34 -35 5 -102 14 -149 21 -47 6 -98 16 -115 22 -48 17 -302 20 -360 4z"/> <path d="M2094 5705 c-3 -14 -1 -110 6 -213 6 -103 16 -349 21 -547 5 -198 13 -409 18 -470 6 -60 11 -218 11 -350 1 -132 6 -303 10 -380 5 -77 13 -302 19 -500 10 -352 27 -705 36 -735 5 -17 229 -127 825 -408 58 -27 168 -80 245 -117 77 -37 176 -84 220 -105 128 -61 313 -149 410 -195 433 -207 434 -207 449 -202 21 8 25 271 32 2048 6 1417 5 1657 -7 1665 -27 17 -113 44 -141 44 -15 0 -45 6 -65 14 -21 7 -69 20 -108 29 -189 44 -335 79 -379 92 -60 19 -126 20 -126 3 -3 -89 1 -723 6 -950 7 -281 6 -298 -11 -304 -13 -5 -26 2 -46 24 -33 37 -35 37 -77 16 -38 -18 -67 -11 -89 22 -26 40 -47 46 -94 28 l-41 -17 -43 46 -43 47 -46 -17 -47 -18 -34 40 c-30 36 -38 40 -82 40 l-48 0 -2 145 c-1 80 -9 316 -18 525 -9 209 -17 421 -18 470 l-2 90 -55 17 c-30 9 -89 24 -130 32 -80 17 -300 68 -390 91 -30 7 -78 16 -107 20 -50 7 -52 6 -59 -20z"/> <path d="M7030 5650 c-52 -10 -135 -26 -185 -34 -49 -9 -121 -23 -160 -31 -104 -21 -192 -36 -265 -46 -36 -4 -83 -13 -105 -18 -41 -10 -131 -27 -295 -56 -52 -9 -123 -23 -157 -31 -34 -8 -75 -14 -90 -14 -15 0 -50 -7 -77 -15 -27 -8 -65 -15 -83 -15 -19 0 -62 -7 -96 -15 -55 -13 -222 -44 -492 -91 -49 -9 -115 -22 -146 -30 -30 -8 -71 -14 -90 -14 -45 -1 -166 -33 -182 -49 -9 -9 -13 -409 -17 -1849 -3 -1010 -4 -1842 -2 -1849 5 -17 30 -24 50 -13 9 5 49 21 87 35 148 56 251 96 283 110 18 8 37 15 43 15 6 0 25 6 42 14 18 8 64 26 102 41 39 15 109 42 156 61 48 19 92 34 99 34 6 0 24 6 38 14 30 16 77 34 272 106 47 18 96 38 110 45 14 7 40 16 57 20 18 3 35 11 38 16 4 5 13 9 22 9 8 0 29 6 46 14 43 19 201 80 259 100 26 9 56 20 65 25 39 19 94 41 106 41 7 0 24 6 38 14 15 7 53 23 86 34 32 11 70 25 83 30 14 5 45 18 70 27 25 10 59 23 75 30 17 7 46 19 65 28 19 8 49 17 65 21 17 4 44 17 60 30 l30 24 7 224 c3 122 11 275 17 338 5 63 10 194 11 290 1 96 6 216 11 265 5 50 13 212 18 360 5 149 14 344 20 435 6 91 15 280 21 420 6 140 17 363 25 495 8 132 15 279 15 326 0 112 6 109 -150 79z"/> </g> </svg> 